<?xml version="1.0" encoding="utf-8"?>
<!-- Generator: Adobe Illustrator 15.1.0, SVG Export Plug-In . SVG Version: 6.00 Build 0)  -->
<!DOCTYPE svg PUBLIC "-//W3C//DTD SVG 1.1//EN" "http://www.w3.org/Graphics/SVG/1.1/DTD/svg11.dtd">
<svg version="1.1" id="Capa_1" xmlns="http://www.w3.org/2000/svg" xmlns:xlink="http://www.w3.org/1999/xlink" x="0px" y="0px"
	 width="237.391px" height="511.482px" viewBox="0 0 237.391 511.482" enable-background="new 0 0 237.391 511.482"
	 xml:space="preserve">
<g>
	<rect fill="#C20E1A" width="24.125" height="511.482"/>
	<path fill="#FFFFFF" stroke="#3F3E3E" stroke-width="9.315" stroke-miterlimit="10" d="M232.921,74.834
		c0.009-0.405,0.009-0.814,0.009-1.228c0-37.865-34.714-68.621-77.768-69.149l1.593-0.018c-54.163,0-117.348,0-117.348,0
		s0,149.308,0,238.997c0,0.328,0,0.656,0,0.983c0,35.918,33.502,65.046,74.829,65.046c0.219,0,0.437,0,0.655,0h-8.033
		c55.845,0,126.071,0,126.071,0s0-147.576,0-237.428"/>
	<path stroke="#000000" stroke-width="8.6954" stroke-miterlimit="10" d="M206.431,100.487c0,38.802-31.447,70.253-70.244,70.253
		c-38.798,0-70.245-31.451-70.245-70.253c0-38.793,31.447-70.245,70.245-70.245C174.983,30.242,206.431,61.693,206.431,100.487z"/>
	<g>
		<path fill="#FFFFFF" d="M110.305,126.421H79.958v-10.2h9.436V81.538h-9.436v-7.651l11.816-4.42h10.03v46.754h8.501V126.421z"/>
		<path fill="#FFFFFF" d="M148.133,126.421h-30.347v-10.2h9.436V81.538h-9.436v-7.651l11.815-4.42h10.031v46.754h8.5V126.421z"/>
		<path fill="#FFFFFF" d="M155.274,126.421v-7.99c0-10.371,3.655-16.151,13.262-21.422l7.311-3.995c4.335-2.38,5.44-3.91,5.44-6.376
			v-0.51c0-3.4-2.21-5.61-6.971-5.61h-1.615c-6.971,0-7.141,5.78-7.141,5.78l-11.646-2.04c0-7.905,6.375-15.472,19.126-15.472h2.04
			c12.411,0,18.617,7.056,18.617,17.087v0.68c0,7.565-3.74,12.156-12.411,16.917l-7.311,3.995c-3.91,2.125-5.525,3.91-6.121,7.311
			h25.587v11.646H155.274z"/>
	</g>
	<g>
		<path d="M146.895,279.326c0.299,1.004,0.435,2.116,0.435,3.201h-3.962c0-1.03-0.081-1.953-0.271-2.632l-0.218-0.678h-6.158
			l-0.189,0.678c-0.19,0.679-0.271,1.602-0.271,2.632h-3.961c0-1.085,0.136-2.197,0.434-3.201l4.667-14.976h4.829L146.895,279.326z
			 M137.78,275.609h4.042l-1.547-5.29c-0.217-0.732-0.406-2.144-0.406-2.144h-0.108c0,0-0.19,1.411-0.407,2.144L137.78,275.609z"/>
		<path d="M157.697,277.265h-8.764v-3.717h8.764V277.265z"/>
		<path d="M167.032,264.134c3.935,0,6.403,2.007,6.403,6.402v5.806c0,4.396-2.469,6.403-6.403,6.403h-0.38
			c-3.934,0-6.402-2.008-6.402-6.403v-5.806c0-4.396,2.469-6.402,6.402-6.402H167.032z M166.951,279.001
			c1.655,0,2.523-0.76,2.523-2.822v-5.479c0-2.062-0.868-2.822-2.523-2.822h-0.217c-1.655,0-2.523,0.76-2.523,2.822v5.479
			c0,2.062,0.868,2.822,2.523,2.822H166.951z"/>
		<path d="M182.934,264.134c3.935,0,6.403,2.007,6.403,6.402v5.806c0,4.396-2.469,6.403-6.403,6.403h-0.38
			c-3.934,0-6.402-2.008-6.402-6.403v-5.806c0-4.396,2.469-6.402,6.402-6.402H182.934z M182.853,279.001
			c1.655,0,2.523-0.76,2.523-2.822v-5.479c0-2.062-0.868-2.822-2.523-2.822h-0.217c-1.655,0-2.523,0.76-2.523,2.822v5.479
			c0,2.062,0.868,2.822,2.523,2.822H182.853z"/>
		<path d="M198.836,264.134c3.935,0,6.403,2.007,6.403,6.402v5.806c0,4.396-2.469,6.403-6.403,6.403h-0.38
			c-3.934,0-6.402-2.008-6.402-6.403v-5.806c0-4.396,2.469-6.402,6.402-6.402H198.836z M198.755,279.001
			c1.655,0,2.523-0.76,2.523-2.822v-5.479c0-2.062-0.868-2.822-2.523-2.822h-0.217c-1.655,0-2.523,0.76-2.523,2.822v5.479
			c0,2.062,0.868,2.822,2.523,2.822H198.755z"/>
	</g>
	
		<line fill="none" stroke="#000000" stroke-width="16.3738" stroke-miterlimit="10" x1="24.216" y1="213.436" x2="35.951" y2="213.436"/>
	
		<line fill="none" stroke="#000000" stroke-width="16.4372" stroke-miterlimit="10" x1="24.125" y1="28.614" x2="35.951" y2="28.614"/>
	<rect x="84.145" y="224.906" fill="#C7362F" width="18.702" height="22.005"/>
	<rect x="126.808" y="224.906" fill="#6AA842" width="18.704" height="22.005"/>
	<rect x="169.471" y="224.906" fill="#009DE0" width="18.703" height="22.005"/>
	<g>
		<rect x="82.988" y="185.937" fill="#C20E1A" width="21.777" height="25.33"/>
		<rect x="111.598" y="187.601" width="70.081" height="7.405"/>
		<rect x="111.47" y="200.896" width="81.58" height="7.496"/>
	</g>
</g>
</svg>
